# xmcd CD database file
#
# Track frame offsets:
#	182
#	15040
#	26212
#	37682
#	48225
#	66680
#	80737
#	90650
#	100967
#	118007
#	127995
#	138505
#	150497
#	165282
#
# Disc length: 2431 seconds
#
# Revision: 2
# Processed by: cddbd v1.4b41PL1 Copyright (c) Steve Scherf et al.
# Submitted via: Feurio! 1.60 - http://www.feurio.com
#
DISCID=a8097d0e,a9097d0e
DTITLE=Various Artist - Tucker Songs Folge 8
DYEAR=1900
DGENRE=
TTITLE0=Tom Astor - Truers Glück
TTITLE1=Jonny Hill - Ich fahr`mein Tour (Sixdays on the Road
TTITLE2=Peter Held - Wenn ein Wunsch mir bleibe (One more Plane)
TTITLE3=Freddy Quinn - Die schönste Frau von Texas
TTITLE4=Jonny Hill - Sylvias Mutter (Sylvia`s Mother)
TTITLE5=Peter Held - Der Spieler (Counterfreit Cowboy
TTITLE6=Tom Astor - Danke Brummi
TTITLE7=Peter Held - Ein Lieberszug verliebt sich in sein Gleis (Rollin´ on 
TTITLE7=your Track)
TTITLE8=Gunter Gabriel - (Wir sind) Die Fahrer
TTITLE9=Freddy Quinn - Oh, wie schade, Clementine
TTITLE10=Jonny hill - König der Landstraße
TTITLE11=Freddy Quinn - Die Freiheit der Berge
TTITLE12=Tom Astor - Und nachts wenn alles schlief
TTITLE13=Gunter Gabriel - Nicotin - Coffein - Asperin
EXTD=
EXTT0=
EXTT1=
EXTT2=
EXTT3=
EXTT4=
EXTT5=
EXTT6=
EXTT7=
EXTT8=
EXTT9=
EXTT10=
EXTT11=
EXTT12=
EXTT13=
PLAYORDER=
